<svg width="800" height="600" xmlns="http://www.w3.org/2000/svg">

  <g>
   <g fill="#000000" transform="translate(0, 512) scale(0.1, -0.1)">
    <path d="m2163.99988,3913.1731c-120,-42 -205,-117 -258,-230l-32,-67l-3,-1332l-2,-1333l-158,0c-260,0 -276,-12 -269,-200c6,-179 58,-282 185,-367c118,-79 -91,-73 2372,-73c2463,0 2254,-6 2372,73c127,85 179,188 185,367c7,188 -9,200 -269,200l-158,0l-2,1333l-3,1332l-32,67c-44,94 -109,160 -202,206l-75,37l-1800,2c-1688,2 -1804,1 -1851,-15zm3609,-204c53,-16 118,-81 134,-134c9,-32 12,-340 12,-1333l0,-1291l-1920,0l-1920,0l0,1291c0,993 3,1301 12,1333c15,50 80,118 128,133c53,17 3498,18 3554,1zm566,-3018c-11,-62 -52,-114 -111,-144l-53,-26l-2176,0l-2176,0l-53,26c-59,30 -100,82 -111,144l-7,40l2347,0l2347,0l-7,-40z"/>
   </g>

    <polygon points="365,435 425,435 415,450 375,450"/>
  </g>

</svg>