{
  "asset": {
    "extras": {
      "author": "Tapan_S (https://sketchfab.com/Tapan_S)",
      "license": "CC-BY-4.0 (http://creativecommons.org/licenses/by/4.0/)",
      "source": "https://sketchfab.com/models/eeef6b210bf448bba80723d0783939a9",
      "title": "Lowpoly Laptop (Closed)"
    },
    "generator": "gltfeditor.com",
    "version": "2.0"
  },
  "buffers": [
    {
      "uri": "data:application/octet-stream;base64,",
      "byteLength": 96500
    }
  ],
  "bufferViews": [
    {
      "buffer": 0,
      "byteOffset": 33340,
      "byteLength": 37896,
      "target": 34962,
      "byteStride": 12
    },
    {
      "buffer": 0,
      "byteOffset": 71236,
      "byteLength": 25264,
      "target": 34962,
      "byteStride": 16
    },
    {
      "buffer": 0,
      "byteOffset": 0,
      "byteLength": 28836,
      "target": 34963
    },
    {
      "buffer": 0,
      "byteOffset": 28836,
      "byteLength": 4504,
      "target": 34962,
      "byteStride": 8
    }
  ],
  "accessors": [
    {
      "bufferView": 0,
      "byteOffset": 12192,
      "componentType": 5126,
      "normalized": false,
      "count": 1016,
      "max": [
        0.9999898672103882,
        0.9997768402099609,
        1
      ],
      "min": [
        -0.999983549118042,
        -0.9997752904891968,
        -0.01944066770374775
      ],
      "type": "VEC3"
    },
    {
      "bufferView": 0,
      "byteOffset": 0,
      "componentType": 5126,
      "normalized": false,
      "count": 1016,
      "max": [
        0.01395893469452858,
        0.019754735752940178,
        0.0010366644710302353
      ],
      "min": [
        -0.02112792432308197,
        -0.020840492099523544,
        -0.0005394500331021845
      ],
      "type": "VEC3"
    },
    {
      "bufferView": 1,
      "byteOffset": 0,
      "componentType": 5126,
      "normalized": false,
      "count": 1016,
      "max": [
        0.8276962637901306,
        0.5964879393577576,
        0.9999799132347107,
        1
      ],
      "min": [
        -0.696965217590332,
        -1,
        -0.9999938607215881,
        1
      ],
      "type": "VEC4"
    },
    {
      "bufferView": 2,
      "byteOffset": 0,
      "componentType": 5125,
      "normalized": false,
      "count": 4986,
      "max": [
        1015
      ],
      "min": [
        0
      ],
      "type": "SCALAR"
    },
    {
      "bufferView": 0,
      "byteOffset": 26076,
      "componentType": 5126,
      "normalized": false,
      "count": 141,
      "max": [
        0.5911911129951477,
        0.6902777552604675,
        0.9999996423721313
      ],
      "min": [
        -0.620091438293457,
        -0.6902928948402405,
        -1
      ],
      "type": "VEC3"
    },
    {
      "bufferView": 0,
      "byteOffset": 24384,
      "componentType": 5126,
      "normalized": false,
      "count": 141,
      "max": [
        0.16255998611450195,
        0.1135379895567894,
        0.000635741394944489
      ],
      "min": [
        -0.16255998611450195,
        -0.1135379895567894,
        -0.004269670695066452
      ],
      "type": "VEC3"
    },
    {
      "bufferView": 1,
      "byteOffset": 16256,
      "componentType": 5126,
      "normalized": false,
      "count": 141,
      "max": [
        1,
        0.10203852504491806,
        0.5924386382102966,
        1
      ],
      "min": [
        0.7843769192695618,
        -0.07183775305747986,
        -0.6199707984924316,
        1
      ],
      "type": "VEC4"
    },
    {
      "bufferView": 3,
      "byteOffset": 0,
      "componentType": 5126,
      "normalized": false,
      "count": 141,
      "max": [
        0.9999164342880249,
        0.9743759036064148
      ],
      "min": [
        0.0000835817409097217,
        0.0000835817409097217
      ],
      "type": "VEC2"
    },
    {
      "bufferView": 2,
      "byteOffset": 19944,
      "componentType": 5125,
      "normalized": false,
      "count": 657,
      "max": [
        140
      ],
      "min": [
        0
      ],
      "type": "SCALAR"
    },
    {
      "bufferView": 0,
      "byteOffset": 31104,
      "componentType": 5126,
      "normalized": false,
      "count": 278,
      "max": [
        0.9950157999992371,
        0.9951868653297424,
        0.9997435808181763
      ],
      "min": [
        -0.9950157999992371,
        -0.9787569642066956,
        -0.9999996423721313
      ],
      "type": "VEC3"
    },
    {
      "bufferView": 0,
      "byteOffset": 27768,
      "componentType": 5126,
      "normalized": false,
      "count": 278,
      "max": [
        0.16255998611450195,
        0.1135379895567894,
        0.004239909816533327
      ],
      "min": [
        -0.16255998611450195,
        -0.11335420608520508,
        -0.0022392189130187035
      ],
      "type": "VEC3"
    },
    {
      "bufferView": 1,
      "byteOffset": 18512,
      "componentType": 5126,
      "normalized": false,
      "count": 278,
      "max": [
        0.9999998807907104,
        0.9999220371246338,
        1,
        1
      ],
      "min": [
        -0.9946752786636353,
        -0.990958571434021,
        -1,
        1
      ],
      "type": "VEC4"
    },
    {
      "bufferView": 3,
      "byteOffset": 1128,
      "componentType": 5126,
      "normalized": false,
      "count": 278,
      "max": [
        0.7407091856002808,
        0.9998932480812073
      ],
      "min": [
        0.00010668551112757996,
        0.00010668551112757996
      ],
      "type": "VEC2"
    },
    {
      "bufferView": 2,
      "byteOffset": 22572,
      "componentType": 5125,
      "normalized": false,
      "count": 1134,
      "max": [
        277
      ],
      "min": [
        0
      ],
      "type": "SCALAR"
    },
    {
      "bufferView": 0,
      "byteOffset": 36168,
      "componentType": 5126,
      "normalized": false,
      "count": 144,
      "max": [
        1,
        1,
        0
      ],
      "min": [
        -1,
        -1,
        -0.3911391794681549
      ],
      "type": "VEC3"
    },
    {
      "bufferView": 0,
      "byteOffset": 34440,
      "componentType": 5126,
      "normalized": false,
      "count": 144,
      "max": [
        0.16255998611450195,
        0.1135379895567894,
        0.000635741394944489
      ],
      "min": [
        -0.16255998611450195,
        -0.1135379895567894,
        -0.003912023268640041
      ],
      "type": "VEC3"
    },
    {
      "bufferView": 1,
      "byteOffset": 22960,
      "componentType": 5126,
      "normalized": false,
      "count": 144,
      "max": [
        0.9972944855690002,
        0.7070873975753784,
        1,
        1
      ],
      "min": [
        -0.36441662907600403,
        -0.7070983052253723,
        -1,
        1
      ],
      "type": "VEC4"
    },
    {
      "bufferView": 3,
      "byteOffset": 3352,
      "componentType": 5126,
      "normalized": false,
      "count": 144,
      "max": [
        0.6280373930931091,
        0.9997949004173279
      ],
      "min": [
        0.00020509988826233894,
        0.00020509988826233894
      ],
      "type": "VEC2"
    },
    {
      "bufferView": 2,
      "byteOffset": 27108,
      "componentType": 5125,
      "normalized": false,
      "count": 432,
      "max": [
        143
      ],
      "min": [
        0
      ],
      "type": "SCALAR"
    }
  ],
  "scene": 0,
  "scenes": [
    {
      "nodes": [
        9
      ],
      "name": "OSG_Scene"
    }
  ],
  "nodes": [
    {
      "name": "Curve_Apple Logo_0",
      "mesh": 0
    },
    {
      "name": "Curve",
      "children": [
        0
      ],
      "matrix": [
        -100.00000762939453,
        0.000008742275895201601,
        0.0000564259898965247,
        0,
        0.000056245226005557925,
        -1.9455270767211914,
        99.9810791015625,
        0,
        0.000009838403457251843,
        99.9810791015625,
        1.9455219507217407,
        0,
        -0.11288858950138092,
        0.13911780714988708,
        0,
        1
      ]
    },
    {
      "name": "Macbook_Body Bottom_0",
      "mesh": 1
    },
    {
      "name": "Macbook_Body Top_0",
      "mesh": 2
    },
    {
      "name": "Macbook_Body Side_0",
      "mesh": 3
    },
    {
      "name": "Macbook",
      "children": [
        2,
        3,
        4
      ],
      "matrix": [
        100,
        0,
        0,
        0,
        0,
        -0.000013435885193757713,
        -100,
        0,
        0,
        100,
        -0.000013435885193757713,
        0,
        0,
        0,
        0,
        1
      ]
    },
    {
      "name": "RootNode",
      "children": [
        1,
        5
      ]
    },
    {
      "name": "8e4fdc9bc0e74a2393198690eb38483d.fbx",
      "children": [
        6
      ],
      "matrix": [
        1,
        0,
        0,
        0,
        0,
        3.422854177870249e-8,
        0.9999999403953552,
        0,
        0,
        -0.9999999403953552,
        3.422854177870249e-8,
        0,
        0,
        0,
        0,
        1
      ]
    },
    {
      "name": "RootNode (model correction matrix)",
      "children": [
        7
      ]
    },
    {
      "name": "RootNode (gltf orientation matrix)",
      "children": [
        8
      ],
      "matrix": [
        1,
        0,
        0,
        0,
        0,
        3.422854177870249e-8,
        -0.9999999403953552,
        0,
        0,
        0.9999999403953552,
        3.422854177870249e-8,
        0,
        0,
        0,
        0,
        1
      ]
    }
  ],
  "meshes": [
    {
      "primitives": [
        {
          "attributes": {
            "NORMAL": 0,
            "POSITION": 1,
            "TANGENT": 2
          },
          "material": 0,
          "mode": 4,
          "indices": 3
        }
      ]
    },
    {
      "primitives": [
        {
          "attributes": {
            "NORMAL": 4,
            "POSITION": 5,
            "TANGENT": 6,
            "TEXCOORD_0": 7
          },
          "material": 1,
          "mode": 4,
          "indices": 8
        }
      ]
    },
    {
      "primitives": [
        {
          "attributes": {
            "NORMAL": 9,
            "POSITION": 10,
            "TANGENT": 11,
            "TEXCOORD_0": 12
          },
          "material": 2,
          "mode": 4,
          "indices": 13
        }
      ]
    },
    {
      "primitives": [
        {
          "attributes": {
            "NORMAL": 14,
            "POSITION": 15,
            "TANGENT": 16,
            "TEXCOORD_0": 17
          },
          "material": 3,
          "mode": 4,
          "indices": 18
        }
      ]
    }
  ],
  "materials": [
    {
      "pbrMetallicRoughness": {
        "baseColorFactor": [
          0.8,
          0.8,
          0.8,
          1
        ],
        "metallicFactor": 0,
        "roughnessFactor": 0
      },
      "emissiveFactor": [
        1,
        1,
        1
      ],
      "alphaMode": "OPAQUE",
      "doubleSided": true
    },
    {
      "pbrMetallicRoughness": {
        "baseColorFactor": [
          1,
          1,
          1,
          1
        ],
        "metallicFactor": 0,
        "roughnessFactor": 0,
        "baseColorTexture": {
          "index": 0,
          "texCoord": 0
        }
      },
      "emissiveFactor": [
        0,
        0,
        0
      ],
      "alphaMode": "OPAQUE",
      "doubleSided": true,
      "normalTexture": {
        "index": 1,
        "texCoord": 0,
        "scale": 1
      }
    },
    {
      "pbrMetallicRoughness": {
        "baseColorFactor": [
          1,
          1,
          1,
          1
        ],
        "metallicFactor": 0,
        "roughnessFactor": 0.4042977387,
        "baseColorTexture": {
          "index": 2,
          "texCoord": 0
        }
      },
      "emissiveFactor": [
        0,
        0,
        0
      ],
      "alphaMode": "OPAQUE",
      "doubleSided": true
    },
    {
      "pbrMetallicRoughness": {
        "baseColorFactor": [
          1,
          1,
          1,
          1
        ],
        "metallicFactor": 0,
        "roughnessFactor": 0.404,
        "baseColorTexture": {
          "index": 3,
          "texCoord": 0
        }
      },
      "emissiveFactor": [
        0,
        0,
        0
      ],
      "alphaMode": "OPAQUE",
      "doubleSided": true,
      "normalTexture": {
        "index": 4,
        "texCoord": 0,
        "scale": 1
      }
    }
  ],
  "textures": [
    {
      "sampler": 0,
      "source": 0
    },
    {
      "sampler": 1,
      "source": 1
    },
    {
      "sampler": 2,
      "source": 2
    },
    {
      "sampler": 3,
      "source": 3
    },
    {
      "sampler": 4,
      "source": 4
    }
  ],
  "samplers": [
    {
      "magFilter": 9729,
      "minFilter": 9987,
      "wrapS": 10497,
      "wrapT": 10497
    },
    {
      "magFilter": 9729,
      "minFilter": 9987,
      "wrapS": 10497,
      "wrapT": 10497
    },
    {
      "magFilter": 9729,
      "minFilter": 9987,
      "wrapS": 10497,
      "wrapT": 10497
    },
    {
      "magFilter": 9729,
      "minFilter": 9987,
      "wrapS": 10497,
      "wrapT": 10497
    },
    {
      "magFilter": 9729,
      "minFilter": 9987,
      "wrapS": 10497,
      "wrapT": 10497
    }
  ],
  "images": [
    {
      "uri": "data:image/png;base64,",
      "mimeType": "image/png"
    },
    {
      "uri": "data:image/png;base64,",
      "mimeType": "image/png"
    },
    {
      "uri": "data:image/png;base64,",
      "mimeType": "image/png"
    },
    {
      "uri": "data:image/png;base64,",
      "mimeType": "image/png"
    },
    {
      "uri": "data:image/png;base64,",
      "mimeType": "image/png"
    }
  ]
}