<svg version="1.1" xmlns="http://www.w3.org/2000/svg"> width="226.30401763916015" height="200.3780002593994" viewBox="0 0 226.30401763916015 200.3780002593994" class="sc-bdvvtL kugZHS">
    <defs id="SvgjsDefs3012"></defs>
    <!-- Big F-->
    <g id="SvgjsG3013" transform="matrix(10.47765827178955,0,0,10.47765827178955,67.66564118509541,-52.55316109984368)" fill="#FF2E1F">
        <path d="M0.7 9.12 l0 -2.1 l7.38 0 l0 2.1 l-7.38 0 z M0.7 20 l0 -8.06 l7.38 0 l0 2.14 l-5.2 0 l0 5.92 l-2.18 0 z"></path>
    </g>

    <!-- Schrift Frederic Bahr -->
    <g id="SvgjsG3014" transform="matrix(1.7000000476837158,0,0,1.7000000476837158,-2.040000891685486,166.038002204895)" fill="#FF2E1F">
        <path d="M10.2 8.94 l-5.68 0 l0 2.66 l4.66 0 l0 2.74 l-4.66 0 l0 5.66 l-3.32 0 l0 -14 l9 0 l0 2.94 z M18.6 9.44 c0.28 0 0.56 0 0.82 0.06 l0 3.02 c-0.24 -0.06 -0.52 -0.06 -0.72 -0.06 c-1.92 0 -3.46 1.38 -3.62 3.3 l0 4.24 l-3.16 0 l0 -10.4 l3.16 0 l0 2.54 c0.48 -1.56 1.68 -2.7 3.52 -2.7 z M26.200000000000003 9.42 c2.36 0 5.66 1.78 5 6.48 l-7.26 0 c0.36 1.08 1.3 1.64 2.56 1.64 c1.28 0 1.68 -0.28 2.4 -0.58 l1.74 1.68 c-0.92 0.9 -2.16 1.56 -4.26 1.56 c-2.58 0 -5.66 -1.78 -5.66 -5.36 c0 -3.64 3.12 -5.42 5.48 -5.42 z M26.200000000000003 12.120000000000001 c-0.9 0 -1.82 0.52 -2.22 1.56 l4.42 0 c-0.32 -1.04 -1.3 -1.56 -2.2 -1.56 z M40.480000000000004 5.859999999999999 l3.16 0 l0 5.08 l0 9.06 l-3.16 0 l0 -1.04 c-0.14 0.36 -1.08 1.24 -2.68 1.24 c-2.38 0 -5.12 -1.7 -5.12 -5.42 c0 -3.58 2.74 -5.36 5.12 -5.36 c1.6 0 2.54 0.92 2.68 1.14 l0 -4.7 z M38.260000000000005 17.42 c1.3 0 2.36 -0.9 2.36 -2.64 c0 -1.68 -1.06 -2.58 -2.36 -2.58 c-1.36 0 -2.52 0.92 -2.52 2.58 c0 1.72 1.16 2.64 2.52 2.64 z M50.84 9.42 c2.36 0 5.66 1.78 5 6.48 l-7.26 0 c0.36 1.08 1.3 1.64 2.56 1.64 c1.28 0 1.68 -0.28 2.4 -0.58 l1.74 1.68 c-0.92 0.9 -2.16 1.56 -4.26 1.56 c-2.58 0 -5.66 -1.78 -5.66 -5.36 c0 -3.64 3.12 -5.42 5.48 -5.42 z M50.84 12.120000000000001 c-0.9 0 -1.82 0.52 -2.22 1.56 l4.42 0 c-0.32 -1.04 -1.3 -1.56 -2.2 -1.56 z M64.32000000000001 9.44 c0.28 0 0.56 0 0.82 0.06 l0 3.02 c-0.24 -0.06 -0.52 -0.06 -0.72 -0.06 c-1.92 0 -3.46 1.38 -3.62 3.3 l0 4.24 l-3.16 0 l0 -10.4 l3.16 0 l0 2.54 c0.48 -1.56 1.68 -2.7 3.52 -2.7 z M69.92000000000002 5.859999999999999 l0 2.66 l-3.16 0 l0 -2.66 l3.16 0 z M69.92000000000002 9.6 l0 10.4 l-3.16 0 l0 -10.4 l3.16 0 z M77.08000000000001 9.42 c1.9 0 3.5 0.8 4.48 2.48 l-2.4 1.14 c-0.52 -0.44 -0.94 -0.84 -2.04 -0.84 c-1.2 0 -2.42 0.92 -2.42 2.62 c0 1.68 1.22 2.56 2.42 2.56 c1.1 0 1.52 -0.36 2.04 -0.8 l2.44 1.14 c-1.02 1.68 -2.58 2.44 -4.52 2.44 c-2.32 0 -5.44 -1.66 -5.44 -5.34 c0 -3.62 3.12 -5.4 5.44 -5.4 z M97.36000000000001 12.219999999999999 c1.4 0.4 2.84 1.66 2.84 3.66 c0 2.56 -1.6 4.12 -5.1 4.12 l-5.7 0 l0 -14 l5.32 0 c2.94 0 4.42 1.66 4.42 3.54 c0 1.54 -1 2.32 -1.78 2.68 z M94.42000000000002 8.8 l-1.8 0 l0 2.5 l1.8 0 c1.14 0 1.52 -0.52 1.52 -1.26 c0 -0.8 -0.48 -1.24 -1.52 -1.24 z M94.92000000000002 17.2 c1.42 0 2.06 -0.6 2.06 -1.74 c0 -0.96 -0.64 -1.58 -2.22 -1.58 l-2.14 0 l0 3.32 l2.3 0 z M109.40000000000002 9.6 l3.16 0 l0 10.4 l-3.16 0 l0 -1.04 c-0.14 0.36 -1.08 1.24 -2.68 1.24 c-2.38 0 -5.12 -1.7 -5.12 -5.42 c0 -3.58 2.74 -5.36 5.12 -5.36 c1.6 0 2.54 0.92 2.68 1.14 l0 -0.96 z M107.18000000000002 17.42 c1.3 0 2.36 -0.9 2.36 -2.64 c0 -1.68 -1.06 -2.58 -2.36 -2.58 c-1.36 0 -2.52 0.92 -2.52 2.58 c0 1.72 1.16 2.64 2.52 2.64 z M120.98000000000002 9.44 c1.94 0 3.92 1.3 3.92 4.6 l0 5.96 l-3.16 0 l0 -5.74 c0 -1.58 -0.54 -2.08 -1.54 -2.08 c-1.42 0 -2.24 1.38 -2.44 1.98 l0 5.84 l-3.16 0 l0 -14.14 l3.16 0 l0 5.54 c0.2 -0.5 1.26 -1.96 3.22 -1.96 z M133.5 9.44 c0.28 0 0.56 0 0.82 0.06 l0 3.02 c-0.24 -0.06 -0.52 -0.06 -0.72 -0.06 c-1.92 0 -3.46 1.38 -3.62 3.3 l0 4.24 l-3.16 0 l0 -10.4 l3.16 0 l0 2.54 c0.48 -1.56 1.68 -2.7 3.52 -2.7 z"></path>
    </g>
</svg>